<svg width="40" height="40" viewBox="0 0 40 40" fill="none" xmlns="http://www.w3.org/2000/svg">
<path d="M30.8336 33.75H24.1669C23.4836 33.75 22.9169 33.1833 22.9169 32.5C22.9169 31.8167 23.4836 31.25 24.1669 31.25H30.8336C31.5169 31.25 32.0836 31.8167 32.0836 32.5C32.0836 33.1833 31.5169 33.75 30.8336 33.75Z" fill="white"/>
<path d="M27.5002 37.0833C26.8169 37.0833 26.2502 36.5167 26.2502 35.8333V29.1667C26.2502 28.4833 26.8169 27.9167 27.5002 27.9167C28.1836 27.9167 28.7502 28.4833 28.7502 29.1667V35.8333C28.7502 36.5167 28.1836 37.0833 27.5002 37.0833Z" fill="white"/>
<path d="M20.2669 19.3667C20.2169 19.3667 20.1836 19.3667 20.1336 19.3667C20.0503 19.35 19.9336 19.35 19.8336 19.3667C15.0003 19.2167 11.3503 15.4167 11.3503 10.7333C11.3336 8.43334 12.2336 6.26668 13.8669 4.63334C15.5003 3.00001 17.6669 2.08334 19.9836 2.08334C24.7503 2.08334 28.6336 5.96668 28.6336 10.7333C28.6336 15.4167 24.9836 19.2 20.3169 19.3667C20.3003 19.3667 20.2836 19.3667 20.2669 19.3667ZM19.9836 4.58334C18.3336 4.58334 16.8003 5.23334 15.6336 6.38334C14.4836 7.55001 13.8503 9.08334 13.8503 10.7167C13.8503 14.05 16.4503 16.75 19.7669 16.85C19.8669 16.8333 20.0836 16.8333 20.3003 16.85C23.5836 16.7 26.1336 14.0167 26.1336 10.7167C26.1336 7.35001 23.3669 4.58334 19.9836 4.58334Z" fill="white"/>
<path d="M19.9836 37.6C16.5836 37.6 13.3669 36.7167 10.9336 35.0833C8.61695 33.5333 7.35028 31.4167 7.35028 29.1333C7.35028 26.85 8.63361 24.75 10.9336 23.2167C15.9169 19.8833 24.0169 19.8833 29.0003 23.2167C29.5669 23.6 29.7336 24.3833 29.3503 24.95C28.9669 25.5333 28.1836 25.6833 27.6169 25.3C23.4669 22.5333 16.4669 22.5333 12.3169 25.3C10.7169 26.3667 9.85028 27.7167 9.85028 29.1333C9.85028 30.55 10.7169 31.9333 12.3169 33C14.3336 34.35 17.0503 35.0833 19.9669 35.0833C20.6503 35.0833 21.2169 35.65 21.2169 36.3333C21.2169 37.0167 20.6669 37.6 19.9836 37.6Z" fill="white"/>
</svg>
