<svg width="32" height="32" viewBox="0 0 32 32" fill="none" xmlns="http://www.w3.org/2000/svg">
<path d="M16 30.3334C8.09329 30.3334 1.66663 23.9067 1.66663 16C1.66663 8.09335 8.09329 1.66669 16 1.66669C23.9066 1.66669 30.3333 8.09335 30.3333 16C30.3333 23.9067 23.9066 30.3334 16 30.3334ZM16 3.66669C9.19996 3.66669 3.66663 9.20002 3.66663 16C3.66663 22.8 9.19996 28.3334 16 28.3334C22.8 28.3334 28.3333 22.8 28.3333 16C28.3333 9.20002 22.8 3.66669 16 3.66669Z" fill="white" fill-opacity="0.6"/>
<path d="M20.9467 21.24C20.7734 21.24 20.6 21.2 20.44 21.0933L16.3067 18.6266C15.28 18.0133 14.52 16.6666 14.52 15.48V10.0133C14.52 9.46664 14.9734 9.01331 15.52 9.01331C16.0667 9.01331 16.52 9.46664 16.52 10.0133V15.48C16.52 15.96 16.92 16.6666 17.3334 16.9066L21.4667 19.3733C21.9467 19.6533 22.0934 20.2666 21.8134 20.7466C21.6134 21.0666 21.28 21.24 20.9467 21.24Z" fill="white" fill-opacity="0.6"/>
</svg>
