<svg width="32" height="32" viewBox="0 0 32 32" fill="none" xmlns="http://www.w3.org/2000/svg">
<path d="M16.2128 15.4934C16.1728 15.4934 16.1461 15.4934 16.1061 15.4934C16.0395 15.48 15.9461 15.48 15.8661 15.4934C11.9995 15.3734 9.07947 12.3334 9.07947 8.58669C9.07947 4.77335 12.1861 1.66669 15.9995 1.66669C19.8128 1.66669 22.9195 4.77335 22.9195 8.58669C22.9061 12.3334 19.9728 15.3734 16.2528 15.4934C16.2395 15.4934 16.2261 15.4934 16.2128 15.4934ZM15.9995 3.66669C13.2928 3.66669 11.0795 5.88002 11.0795 8.58669C11.0795 11.2534 13.1595 13.4 15.8128 13.4934C15.8795 13.48 16.0661 13.48 16.2395 13.4934C18.8528 13.3734 20.9061 11.2267 20.9195 8.58669C20.9195 5.88002 18.7061 3.66669 15.9995 3.66669Z" fill="#42C83C"/>
<path d="M16.2261 30.0666C13.6128 30.0666 10.9861 29.4 8.99948 28.0666C7.14615 26.84 6.13281 25.16 6.13281 23.3333C6.13281 21.5066 7.14615 19.8133 8.99948 18.5733C12.9995 15.92 19.4795 15.92 23.4528 18.5733C25.2928 19.8 26.3195 21.48 26.3195 23.3066C26.3195 25.1333 25.3061 26.8266 23.4528 28.0666C21.4528 29.4 18.8395 30.0666 16.2261 30.0666ZM10.1061 20.2533C8.82615 21.1066 8.13281 22.2 8.13281 23.3466C8.13281 24.48 8.83948 25.5733 10.1061 26.4133C13.4261 28.64 19.0261 28.64 22.3461 26.4133C23.6261 25.56 24.3195 24.4666 24.3195 23.32C24.3195 22.1866 23.6128 21.0933 22.3461 20.2533C19.0261 18.04 13.4261 18.04 10.1061 20.2533Z" fill="#42C83C"/>
</svg>
